# xmcd CD database file generated by Grip 3.2.0
# 
# Track frame offsets:
#       150
#       5270
#       16429
#       30844
#       53395
#       67742
#       78417
#       97824
#       112078
#       126754
#       149544
#       170237
#       191413
#       201709
#       223452
#       237174
#       248686
#       274260
#       288327
#       299680
# 
# Disc length: 4217 seconds
# 
# Revision: 2
# Processed by: cddbd v1.5.2PL0 Copyright (c) Steve Scherf et al.
# Submitted via: Grip 3.2.0
# 
DISCID=29107714
DTITLE=Tom Waits - Orphans - Bawlers
DYEAR=2006
DGENRE=Jazz
TTITLE0=Bend Down The Branches
TTITLE1=You Can Never Hold Back Spring
TTITLE2=Long Way Home
TTITLE3=Widow's Grove
TTITLE4=Little Drop Of Poison
TTITLE5=Shiny Things
TTITLE6=World Keeps Turning
TTITLE7=Tell It To Me
TTITLE8=Never Let Go
TTITLE9=Fannin Street
TTITLE10=Little Man
TTITLE11=It's Over
TTITLE12=If I Have To Go
TTITLE13=Goodnight Irene
TTITLE14=The Fall Of Troy
TTITLE15=Take Care Of All My Children
TTITLE16=Down There By The Train
TTITLE17=Danny Says
TTITLE18=Jayne's Blues Wish
TTITLE19=Young At Heart
EXTD=YEAR: 2006
EXTT0=
EXTT1=
EXTT2=
EXTT3=
EXTT4=
EXTT5=
EXTT6=
EXTT7=
EXTT8=
EXTT9=
EXTT10=
EXTT11=
EXTT12=
EXTT13=
EXTT14=
EXTT15=
EXTT16=
EXTT17=
EXTT18=
EXTT19=
PLAYORDER=
